<svg xmlns="http://www.w3.org/2000/svg" xmlns:xlink="http://www.w3.org/1999/xlink" width="500" zoomAndPan="magnify" viewBox="0 0 375 374.999991" height="500" preserveAspectRatio="xMidYMid meet" version="1.2"><defs><clipPath id="eb7d18090c"><path d="M 57.9375 37.5 L 317.4375 37.5 L 317.4375 337.5 L 57.9375 337.5 Z M 57.9375 37.5 "/></clipPath></defs><g id="37aa4bc9cc"><rect x="0" width="375" y="0" height="374.999991" style="fill:#ffffff;fill-opacity:1;stroke:none;"/><rect x="0" width="375" y="0" height="374.999991" style="fill:#ffffff;fill-opacity:1;stroke:none;"/><g clip-rule="nonzero" clip-path="url(#eb7d18090c)"><path style=" stroke:none;fill-rule:evenodd;fill:#000000;fill-opacity:1;" d="M 187.6875 37.5 L 317.390625 112.570312 L 317.390625 158.765625 L 301.140625 167.839844 L 177.5 239.332031 L 187.6875 245.382812 L 301.140625 179.9375 L 317.390625 170.589844 L 317.390625 262.429688 L 187.6875 337.5 L 81.945312 276.453125 L 98.191406 266.832031 L 301.140625 149.691406 L 301.140625 121.917969 L 187.6875 56.472656 L 74.234375 121.917969 L 74.234375 206.886719 L 121.871094 179.9375 L 122.148438 149.964844 L 187.6875 111.742188 L 229.269531 135.941406 L 74.234375 224.757812 L 57.984375 234.109375 L 57.984375 112.570312 Z M 162.078125 248.132812 L 114.164062 276.179688 L 130.960938 285.804688 L 187.6875 318.800781 L 244.414062 285.804688 L 301.140625 253.082031 L 301.140625 197.8125 L 187.960938 263.257812 Z M 138.121094 170.3125 L 197.875 136.214844 L 187.960938 129.890625 L 138.394531 158.765625 Z M 138.121094 170.3125 "/></g></g></svg>